<?xml version="1.0" encoding="utf-8"?>
<!-- Generator: Adobe Illustrator 25.4.1, SVG Export Plug-In . SVG Version: 6.00 Build 0)  -->
<svg version="1.1" id="Layer_1" xmlns="http://www.w3.org/2000/svg" xmlns:xlink="http://www.w3.org/1999/xlink" x="0px" y="0px"
	 viewBox="0 0 800 800" style="enable-background:new 0 0 800 800;" xml:space="preserve">
<style type="text/css">
	.st0{fill:#EAECEE;}
	.st1{fill:#EEEFF0;}
	.st2{fill:#D2D6DC;}
</style>
<g>
	<g>
		<path class="st0" d="M794.28,432.09c-1.06,0.02-2.13,0.04-3.19,0.06c0-19.74,0-39.48,0-59.22c1.06,0.02,2.13,0.04,3.19,0.06
			C794.28,392.68,794.28,412.38,794.28,432.09z"/>
		<path class="st1" d="M15.94,428.86c-1.05-0.01-2.1-0.03-3.16-0.06c0-17.51,0-35.03,0-52.54c1.05-0.03,2.1-0.05,3.16-0.06
			C15.94,393.76,15.94,411.31,15.94,428.86z"/>
		<path class="st2" d="M15.94,428.86c0-17.55,0-35.11,0-52.66c6.84-70.53,26.88-135.94,68.01-195.06
			c36.14-51.95,82.5-91.22,136.8-121.74c39.37-22.13,82.86-33.75,127.1-40.55c81.74-12.57,160.55,1.28,232.95,39.66
			c110,58.31,180.91,148.03,203.88,272.58c2.56,13.89,7.05,27.45,6.41,41.82c0,19.74,0,39.48,0,59.22
			c-7.42,75.97-31.45,145.33-79.28,205.95c-67.9,86.06-155.96,135.77-264.59,148.63c-107.7,12.75-204.19-15.71-288.78-82.98
			C85.1,645.43,40.34,569.24,22.79,477.23C19.74,461.25,15.59,445.36,15.94,428.86z M546.47,703.6c-0.95-2.75-1.21-5.06-2.39-6.72
			c-25.49-35.96-51.27-71.71-76.51-107.85c-4.96-7.1-10.51-6.33-17.09-4.71c-28.42,7.02-57.06,8.02-85.75,2.18
			C263.58,565.93,199,469.05,217.18,369.63c20.06-109.7,127.29-176.75,234.38-148.24c8.03,2.14,12.07,0.78,17.01-6.41
			c24.03-34.98,48.87-69.4,73.6-103.9c5.51-7.68,4.89-10.87-4.85-14.99c-55.82-23.58-113.06-32.74-173.75-25.76
			c-69.68,8.01-131.04,34.78-182.3,80.89c-88.96,80.03-127.04,181.4-109.02,300.1c20,131.76,95.95,220.29,220.29,266.81
			c50.8,19,103.8,23.95,157.56,15.76C483.57,728.8,516.02,719.88,546.47,703.6z M738.45,403.84c0-8.21-0.27-16.43,0.07-24.62
			c0.37-8.83-1.71-17.25-3.01-25.87c-13.62-90.16-57.7-161.84-129.82-217.05c-7.4-5.66-10.56-6.53-16.28,1.96
			c-17.94,26.65-36.93,52.59-55.47,78.84c-6.59,9.33-19.14,19.55-18.02,27.89c1.26,9.37,14.87,17.1,23.18,25.48
			c46.5,46.92,57.75,103.83,49.26,167.28c-6.47,48.35-34.77,82.5-69.32,112.96c-6.08,5.36-6.25,7.98-1.83,14.13
			c24.8,34.49,49.25,69.23,73.55,104.07c4.26,6.11,7.37,6.02,13.01,1.5c20.42-16.34,40.22-32.84,57.12-53.37
			C712.08,554.89,739.5,484.69,738.45,403.84z M401.75,267.89c-66.03-3.83-132.9,59.51-134.1,132.48
			c-1.28,77.89,70.28,141.44,141.34,137.61c67.67-3.65,128.92-64.86,129.35-135.83C538.78,331.05,475.71,265.83,401.75,267.89z"/>
	</g>
</g>
</svg>
