<?xml version="1.0" standalone="no"?>
<!DOCTYPE svg PUBLIC "-//W3C//DTD SVG 20010904//EN"
 "http://www.w3.org/TR/2001/REC-SVG-20010904/DTD/svg10.dtd">
<svg version="1.0" xmlns="http://www.w3.org/2000/svg"
 width="900.000000pt" height="900.000000pt" viewBox="0 0 900.000000 900.000000"
 preserveAspectRatio="xMidYMid meet">
<metadata>
Created by potrace 1.14, written by Peter Selinger 2001-2017
</metadata>
<g transform="translate(0.000000,900.000000) scale(0.100000,-0.100000)"
fill="#000000" stroke="none">
<path d="M5985 7144 c-397 -32 -820 -134 -1188 -288 l-102 -42 -3 -321 -2
-321 -45 44 c-25 24 -45 40 -45 37 0 -3 -8 1 -18 10 -10 10 -21 15 -24 12 -2
-3 -5 2 -5 10 0 12 6 10 24 -7 l23 -21 0 251 c0 151 -4 252 -9 252 -6 0 -139
-62 -298 -139 l-288 -138 -3 -297 c-1 -163 1 -296 5 -296 5 0 82 40 173 88
133 71 165 92 166 110 1 12 -12 59 -28 104 -21 61 -28 96 -26 137 l3 56 45 0
c35 0 44 -3 42 -15 -2 -11 1 -10 12 3 9 12 16 14 21 8 10 -18 -3 -29 -30 -27
-20 3 -24 -1 -23 -20 1 -12 5 -21 9 -18 9 5 21 -25 14 -36 -3 -4 1 -10 8 -13
10 -4 13 2 11 21 l-4 27 9 -25 c4 -14 4 -35 0 -47 -6 -17 -5 -21 7 -16 10 4
13 0 8 -13 -5 -15 -4 -16 5 -4 5 8 13 11 17 7 4 -3 2 -13 -5 -21 -9 -11 -8
-15 4 -20 10 -3 15 1 16 12 0 14 2 14 8 -3 5 -12 3 -33 -5 -53 -16 -39 -3 -78
22 -68 9 3 12 1 9 -4 -3 -6 -2 -10 4 -10 22 0 7 -62 -21 -91 -16 -16 -23 -26
-14 -23 12 4 14 0 10 -19 -2 -14 0 -28 6 -32 5 -3 7 0 4 9 -3 8 3 19 15 26 17
9 21 8 21 -5 0 -8 -5 -15 -12 -15 -9 0 -9 -3 0 -12 15 -15 16 -32 2 -23 -9 6
-15 -22 -11 -54 2 -7 -2 -10 -9 -6 -9 6 -9 2 0 -15 6 -12 9 -24 6 -28 -3 -3
-6 0 -6 8 0 10 -3 10 -15 0 -9 -7 -13 -15 -10 -18 16 -17 42 -6 81 35 43 44
59 68 29 43 -24 -20 -16 3 13 36 15 17 37 35 50 38 12 4 22 14 22 22 0 8 5 14
11 14 5 0 7 -4 4 -10 -4 -6 1 -7 11 -3 14 5 13 8 -7 20 l-24 14 25 -7 c40 -11
80 -34 80 -46 0 -6 3 -8 6 -5 4 4 2 13 -5 21 -9 11 -8 15 5 20 22 8 26 8 20
-3 -8 -12 4 -41 16 -41 19 0 37 -35 31 -61 -3 -15 0 -30 6 -34 8 -5 10 1 5 19
-4 15 -2 26 4 26 6 0 12 -8 14 -17 3 -10 8 1 12 24 6 33 4 46 -7 58 -20 19
-38 19 -31 1 5 -13 2 -13 -20 -3 -31 14 -29 31 5 36 13 1 34 14 47 26 22 23
23 24 3 22 -11 0 -19 -6 -18 -11 1 -6 -3 -10 -10 -11 -6 0 -15 -3 -19 -7 -11
-12 -34 -10 -34 3 0 6 9 13 20 16 11 3 20 12 20 20 0 8 4 12 9 8 5 -3 12 -1
16 5 4 6 10 8 14 6 4 -3 13 -1 21 5 13 7 13 9 0 10 -10 0 -8 3 5 9 15 7 9 9
-25 9 -48 1 -127 39 -123 59 2 6 -6 14 -17 17 -11 4 -20 12 -20 19 0 22 312
144 539 211 133 39 354 85 411 85 50 0 70 8 70 29 0 9 4 21 9 27 16 17 51 84
51 99 0 16 31 87 42 95 3 3 10 18 13 33 4 15 15 32 24 37 9 5 11 10 4 10 -7 0
-10 7 -7 15 3 8 9 14 12 13 20 -2 32 3 27 12 -3 5 1 20 9 32 13 18 16 19 16 5
0 -21 9 -21 37 -2 23 16 40 5 27 -17 -5 -8 -2 -9 9 -5 19 7 23 -9 5 -16 -8 -4
-5 -8 9 -12 13 -4 20 -12 16 -21 -3 -9 2 -14 16 -14 12 0 21 -4 21 -10 0 -5 7
-10 15 -10 10 0 13 -9 10 -35 -4 -26 0 -37 15 -48 11 -8 17 -17 13 -20 -3 -4
-11 1 -18 10 -9 13 -14 13 -20 3 -5 -9 -4 -11 3 -6 7 4 12 1 12 -8 0 -9 -6
-15 -12 -13 -9 1 -14 -13 -16 -40 -2 -24 -7 -43 -13 -43 -5 0 -8 3 -8 8 4 23
-2 52 -11 52 -6 0 -8 -11 -4 -27 5 -22 4 -25 -6 -17 -6 7 -13 24 -13 38 -1 14
-8 26 -14 26 -7 0 -13 5 -13 11 0 8 -5 8 -15 -1 -8 -7 -15 -20 -15 -28 0 -13
3 -12 15 4 18 23 19 14 3 -21 l-11 -25 -18 26 -17 27 1 -42 c1 -22 5 -41 10
-41 4 0 7 6 8 13 0 6 4 2 10 -11 6 -17 4 -32 -7 -54 -8 -16 -13 -36 -10 -44 3
-8 1 -14 -4 -14 -6 0 -10 6 -10 13 0 8 -3 8 -8 1 -4 -6 -15 -14 -26 -17 -18
-7 -17 -8 4 -27 19 -16 20 -20 7 -20 -10 0 -17 -4 -17 -9 0 -15 23 -19 45 -8
18 9 19 9 6 -7 -12 -15 -12 -16 5 -10 18 5 18 5 0 -10 -16 -13 -22 -13 -29 -3
-6 9 -7 8 -4 -3 2 -8 13 -14 23 -12 18 3 18 3 -1 -13 -11 -9 -15 -14 -8 -11 8
5 8 0 0 -19 -7 -14 -19 -25 -27 -26 -10 0 -9 -3 4 -8 13 -5 16 -10 8 -15 -6
-3 -9 -13 -5 -21 3 -8 0 -15 -6 -15 -6 0 -12 10 -12 23 -1 16 -2 18 -6 5 -2
-10 -8 -18 -13 -18 -11 0 -24 39 -16 47 3 3 1 14 -4 24 -7 12 -7 20 0 24 5 3
10 17 10 31 0 14 4 23 10 19 6 -4 6 -15 -1 -32 -14 -37 -4 -40 14 -4 13 26 13
32 1 42 -9 7 -12 20 -8 33 6 20 6 20 -13 3 -19 -17 -20 -16 -20 13 0 16 4 30
9 30 15 0 8 34 -12 60 -17 21 -20 22 -20 7 0 -11 -8 -32 -17 -48 -14 -24 -15
-36 -6 -69 9 -37 7 -46 -28 -115 l-37 -75 -18 56 c-11 37 -20 51 -25 42 -12
-18 -11 -30 1 -23 6 3 10 2 10 -4 0 -5 -8 -15 -17 -20 -10 -6 -13 -11 -7 -11
5 0 15 5 22 12 9 9 12 7 13 -12 1 -14 3 -35 4 -47 2 -21 -10 -40 -27 -42 -5
-1 -7 -4 -6 -8 2 -5 7 -7 11 -5 5 1 7 -3 4 -10 -2 -7 -10 -12 -16 -11 -6 2
-11 -2 -11 -7 0 -23 -17 -7 -43 40 -31 54 -48 69 -22 19 9 -17 14 -33 11 -36
-2 -3 -12 9 -21 26 -8 17 -21 31 -28 30 -9 0 -9 -2 1 -6 6 -2 12 -9 12 -14 0
-5 -9 -4 -20 3 -36 23 16 40 70 24 23 -7 23 -6 -5 14 l-30 21 30 -4 c17 -2 24
-2 17 0 -8 3 -11 11 -8 18 4 10 -1 10 -22 -1 -15 -8 -34 -14 -42 -14 -13 0
-13 -1 0 -10 13 -8 12 -10 -5 -11 -11 -1 -24 -3 -30 -4 -5 -2 -16 -3 -24 -4
-11 -1 -10 -5 5 -17 10 -8 14 -13 8 -10 -6 3 -26 8 -45 11 -29 4 -31 3 -18 -8
9 -6 19 -22 23 -35 7 -20 4 -22 -29 -22 -22 0 -34 -4 -30 -10 3 -5 21 -10 40
-10 29 0 33 3 31 25 -3 21 -1 23 17 13 17 -9 19 -8 13 7 -6 15 -4 16 9 5 9 -8
14 -22 12 -32 -3 -10 -1 -18 4 -18 5 0 9 5 9 11 0 5 4 8 10 4 5 -3 7 -12 4
-19 -3 -8 4 -16 16 -19 30 -8 20 -33 -11 -29 -31 5 -21 -6 12 -12 13 -2 24 -5
24 -6 0 -1 8 -3 17 -5 25 -5 30 9 13 31 -12 15 -14 15 -9 3 3 -10 1 -19 -4
-23 -5 -3 -9 0 -9 7 0 7 -4 21 -8 32 -4 11 -3 16 2 10 4 -5 14 -11 22 -13 7
-1 29 -18 50 -38 27 -26 43 -34 63 -31 20 2 35 -4 55 -25 20 -21 23 -28 11
-28 -9 0 -18 6 -21 13 -2 6 -8 8 -13 4 -12 -12 18 -28 42 -22 12 3 27 -3 37
-15 10 -12 23 -17 34 -13 14 5 15 3 7 -6 -9 -10 -17 -10 -34 -1 -12 6 -24 9
-27 6 -3 -3 10 -11 28 -19 19 -8 36 -10 37 -5 2 5 13 -1 23 -13 15 -17 19 -18
19 -6 0 8 -6 18 -12 20 -8 3 -6 6 5 6 10 1 22 -9 28 -21 l10 -23 -5 23 c-3 14
1 25 10 29 8 3 11 10 7 16 -3 6 -1 7 5 3 7 -4 12 -3 12 2 0 5 6 9 14 9 8 0 12
-6 9 -14 -3 -8 -8 -11 -11 -9 -7 7 -32 -13 -32 -26 0 -5 4 -7 9 -3 5 3 11 0
14 -7 2 -7 2 -2 0 12 -3 14 -1 22 3 18 4 -4 14 -2 22 5 13 10 14 9 3 -11 -16
-30 -6 -42 30 -38 37 4 46 13 31 28 -9 9 -12 8 -12 -5 0 -9 -4 -17 -10 -17 -5
0 -10 5 -10 11 0 8 -5 8 -15 -1 -10 -9 -15 -9 -15 -1 0 6 5 11 10 11 6 0 10 8
11 18 0 15 1 15 8 -1 6 -16 9 -16 18 -5 6 7 13 20 15 28 3 9 10 -3 17 -27 10
-38 31 -60 31 -33 0 6 8 10 18 11 10 0 12 3 5 6 -7 2 -13 9 -13 14 0 16 33 48
43 42 6 -3 7 -1 3 6 -4 6 -3 18 4 25 6 8 8 27 6 42 -7 34 2 67 15 59 5 -4 9
-14 9 -23 0 -15 -2 -15 -10 -2 -8 13 -10 13 -10 -1 0 -22 26 -44 35 -29 9 15
-5 90 -16 90 -6 0 -7 -5 -3 -12 4 -7 3 -8 -4 -4 -13 8 8 58 28 71 14 9 12 -9
-2 -24 -11 -10 -10 -11 5 -6 10 4 17 2 17 -4 0 -6 -4 -11 -10 -11 -5 0 -10 -5
-10 -11 0 -6 7 -9 15 -5 9 3 24 -3 35 -14 19 -19 19 -19 25 1 4 11 9 18 12 16
9 -9 -52 -116 -67 -117 -8 -1 -4 -6 10 -12 l25 -11 -25 -4 c-25 -4 -50 -28
-50 -47 0 -6 5 -4 10 4 8 13 13 12 32 -7 21 -22 22 -23 3 -24 -20 0 -20 -1 0
-9 17 -7 17 -9 3 -9 -24 -1 -11 -31 13 -31 18 0 20 -4 23 -38 1 -13 103 -61
135 -63 9 -1 -11 -8 -44 -15 l-60 -13 53 5 c34 3 52 1 52 -6 0 -6 -5 -8 -11
-5 -12 8 9 -32 29 -53 7 -7 9 -18 6 -24 -3 -5 8 -2 26 7 18 9 29 12 26 7 -3
-6 1 -13 10 -16 10 -4 13 -2 8 7 -5 9 -4 9 7 0 7 -7 19 -13 27 -13 10 0 7 9
-10 33 -35 46 -41 57 -30 57 5 0 12 -9 15 -20 5 -20 27 -28 27 -10 0 6 -4 10
-9 10 -4 0 -6 11 -4 23 3 14 -2 31 -11 39 -8 9 -13 18 -10 21 3 3 -4 3 -17 0
-18 -5 -21 -3 -16 11 4 10 7 34 7 53 0 29 2 33 14 24 19 -16 30 2 20 32 -7 21
-7 21 -15 2 -7 -18 -8 -17 -8 7 -1 14 5 29 12 32 6 3 0 3 -15 1 -31 -4 -45 9
-30 28 7 8 5 19 -8 35 -10 12 -20 22 -23 22 -3 0 -3 -10 -1 -22 4 -21 4 -21
-4 -3 -9 20 -9 20 -16 -1 -3 -12 -15 -29 -25 -38 -18 -16 -18 -15 -16 24 3 50
15 66 15 19 l1 -34 15 28 c8 15 11 33 7 40 -11 18 -13 38 -2 31 5 -3 7 -9 4
-14 -3 -5 -2 -11 3 -14 4 -2 8 8 7 24 0 15 -3 26 -7 23 -5 -2 -8 4 -8 14 0 10
-6 27 -14 38 -7 11 -18 61 -25 111 -6 50 -18 113 -26 140 -8 27 -15 63 -15 80
0 19 -6 34 -15 38 -8 3 -15 13 -15 22 0 15 14 16 148 11 214 -8 391 -44 620
-126 l107 -38 3 -1697 c2 -1614 1 -1697 -15 -1692 -10 3 -56 16 -103 30 -173
51 -387 88 -616 107 -165 13 -501 7 -652 -12 -51 -6 -96 -8 -100 -5 -3 4 -2
19 4 34 5 15 8 49 6 77 l-4 49 -14 -29 -13 -30 5 30 c10 53 14 62 29 62 8 0
15 -9 15 -19 0 -11 6 -26 14 -33 11 -12 14 -9 19 18 2 18 1 50 -3 72 -4 22 -9
31 -10 20 -1 -11 -4 -15 -6 -9 -8 18 20 109 34 110 6 1 18 2 26 3 8 0 19 15
25 32 9 26 8 30 -4 26 -9 -4 -12 -1 -8 9 3 9 12 12 24 9 12 -4 19 -2 19 7 0
10 2 10 8 0 6 -9 12 -5 22 13 7 14 17 25 22 25 4 0 8 12 8 26 0 17 4 24 13 21
8 -3 14 3 14 16 1 11 16 33 32 48 35 31 40 44 14 34 -25 -9 -2 14 29 29 12 6
23 18 23 26 0 9 10 26 23 40 12 13 22 27 22 32 0 16 -18 7 -34 -17 -9 -14 -20
-24 -24 -23 -4 1 -21 -12 -39 -30 -20 -20 -41 -32 -58 -32 -14 0 -24 -4 -21
-9 4 -5 -8 -13 -26 -16 -33 -8 -58 -26 -58 -44 0 -6 -6 -8 -14 -5 -8 3 -26 -2
-40 -11 -14 -10 -26 -14 -26 -10 0 4 -8 -3 -18 -15 -10 -12 -31 -24 -46 -25
-15 -2 -38 -13 -51 -25 -14 -13 -40 -23 -71 -26 -35 -3 -54 -11 -66 -27 -9
-12 -29 -23 -44 -24 -15 -1 -40 -11 -55 -22 -15 -11 -39 -23 -55 -27 -23 -6
-26 -4 -21 10 5 13 -3 11 -43 -9 -46 -23 -58 -25 -153 -21 -116 5 -167 14
-173 30 -3 7 -19 13 -36 14 -17 2 -46 12 -65 23 -19 12 -41 18 -52 14 -13 -4
-27 1 -40 14 -11 11 -33 24 -48 27 l-27 7 30 -29 c16 -16 34 -31 39 -32 25 -9
46 -24 41 -29 -12 -12 44 -43 78 -43 23 0 39 -6 42 -14 3 -8 12 -12 20 -9 8 3
21 -3 29 -13 8 -11 15 -14 15 -9 0 6 4 5 8 -2 4 -7 23 -13 42 -15 19 -1 51
-10 70 -20 37 -19 88 -26 60 -8 -11 7 -8 10 15 9 17 0 39 -4 50 -9 l20 -9 -20
-1 c-13 -1 -1 -10 33 -26 53 -24 72 -41 26 -24 -32 13 -51 13 -38 1 21 -20
146 -81 166 -81 20 0 20 1 4 19 -17 19 -17 19 6 14 23 -5 23 -5 3 10 -26 21
-14 21 30 0 24 -12 31 -19 23 -25 -8 -5 -1 -8 18 -8 18 0 38 -8 49 -20 17 -19
17 -20 2 -14 -18 6 -4 -13 46 -67 27 -30 21 -37 -40 -49 -233 -46 -582 -161
-835 -273 l-58 -26 0 -325 0 -325 83 46 c45 25 139 72 210 104 668 306 1366
348 2137 130 195 -55 459 -154 649 -242 57 -27 105 -49 107 -49 2 0 3 1049 2
2332 l-3 2331 -110 49 c-354 157 -743 267 -1105 313 -120 16 -562 28 -675 19z
m115 -526 c0 6 5 12 11 12 6 0 8 -9 4 -22 -3 -13 -3 -18 2 -13 4 6 14 11 22
13 11 2 12 0 3 -11 -10 -12 -8 -14 13 -14 14 0 25 4 25 9 0 5 5 6 10 3 6 -4 4
-13 -7 -23 -16 -16 -15 -17 1 -20 9 -2 15 -9 13 -15 -2 -6 11 -24 29 -41 21
-21 31 -39 30 -56 -1 -14 1 -30 5 -35 4 -6 4 -16 0 -23 -6 -10 -11 -9 -21 3
-11 13 -10 14 5 9 14 -6 16 -4 9 7 -4 8 -9 19 -10 24 0 6 -2 16 -2 24 -1 8 -8
11 -18 7 -12 -5 -15 -2 -10 10 4 11 -1 18 -16 22 -21 5 -21 6 -2 13 16 7 17 8
2 8 -10 1 -18 8 -18 16 0 8 -7 15 -16 15 -11 0 -14 6 -9 23 5 17 4 19 -4 7 -6
-8 -11 -10 -11 -5 0 6 -5 3 -11 -5 -9 -12 -10 -12 -5 4 5 13 2 17 -9 12 -8 -3
-15 0 -16 7 0 9 -2 9 -6 0 -2 -7 3 -20 11 -29 9 -8 16 -20 16 -25 0 -5 -9 0
-19 10 -12 12 -19 32 -18 55 1 21 4 31 9 23 6 -9 8 -9 8 1z m200 -197 c0 -3
-4 -12 -9 -19 -6 -11 -9 -9 -13 5 -3 12 0 20 8 20 8 0 14 -3 14 -6z m-483 -53
c-3 -8 -6 -5 -6 6 -1 11 2 17 5 13 3 -3 4 -12 1 -19z m483 2 c0 -5 -4 -10 -10
-10 -5 0 -10 5 -10 10 0 6 5 10 10 10 6 0 10 -4 10 -10z m5 -29 c-3 -6 -11 -9
-16 -6 -18 11 -9 -7 12 -23 17 -14 18 -21 9 -42 -9 -22 -10 -23 -6 -2 3 14 -1
22 -10 22 -8 0 -14 6 -14 13 0 8 -4 7 -11 -3 -9 -12 -10 -12 -5 3 3 10 6 25 6
32 0 7 8 15 18 17 21 5 26 2 17 -11z m-5 -123 c0 -10 5 -18 11 -18 6 0 8 8 4
19 -3 11 -2 22 2 24 5 3 10 -3 11 -14 1 -10 2 -25 3 -31 3 -25 -10 -68 -24
-83 -13 -12 -16 -12 -20 7 -3 12 -2 29 4 39 6 11 5 27 -1 44 -5 14 -10 34 -10
43 0 15 2 15 10 2 5 -8 10 -23 10 -32z m-440 -34 c0 -8 6 -11 15 -8 8 4 26 -1
39 -10 15 -9 26 -12 30 -5 2 5 3 4 2 -3 -2 -7 -8 -12 -14 -11 -6 2 -9 -10 -8
-25 2 -15 7 -25 12 -22 5 3 8 11 8 18 -1 6 3 12 8 12 13 0 0 -62 -15 -75 -7
-5 -13 -30 -15 -54 -2 -36 0 -42 13 -38 13 5 12 2 -2 -20 -16 -24 -18 -25 -22
-7 -2 10 -10 23 -17 27 -28 16 -63 102 -60 148 1 25 5 49 9 55 3 6 0 11 -8 11
-8 0 -11 -5 -8 -11 3 -6 2 -8 -2 -3 -5 4 -9 16 -10 25 -1 14 4 17 22 14 13 -2
23 -10 23 -18z m426 -12 c-4 -3 -16 -6 -28 -7 -19 -2 -19 -1 -4 10 9 7 16 18
16 26 1 9 4 8 11 -4 6 -10 8 -21 5 -25z m108 -108 c3 -11 7 -27 11 -36 5 -12
2 -20 -9 -24 -9 -3 -16 -16 -15 -28 0 -20 1 -20 9 -1 7 19 8 19 15 2 4 -10 4
-21 1 -25 -9 -9 -42 14 -38 27 1 6 -4 11 -10 12 -7 0 -3 4 10 10 17 7 21 13
14 25 -5 9 -7 27 -4 40 5 27 11 27 16 -2z m-1852 -66 c-3 -13 1 -18 18 -18 19
0 20 -2 10 -15 -11 -13 -10 -14 6 -9 16 6 17 5 6 -7 -11 -12 -15 -11 -28 5 -7
11 -17 17 -20 13 -4 -4 -1 -14 7 -23 12 -16 12 -17 -7 -12 -12 3 -29 1 -39 -5
-16 -8 -15 -5 4 27 13 20 21 43 18 51 -4 9 0 13 12 12 12 -1 17 -7 13 -19z
m1408 15 c0 -5 -5 -15 -10 -23 -7 -12 -9 -10 -7 8 1 19 17 33 17 15z m243 -51
c-3 -12 -9 -22 -14 -22 -12 0 -11 7 2 32 13 25 20 19 12 -10z m-1425 1 c-10
-2 -18 -9 -18 -14 0 -5 -5 -9 -11 -9 -8 0 -8 5 1 15 7 8 20 14 29 14 13 -1 13
-2 -1 -6z m1118 -10 c21 -28 16 -39 -6 -15 -11 12 -20 24 -20 27 0 11 13 4 26
-12z m411 -19 c-3 -3 -12 -4 -19 -1 -8 3 -5 6 6 6 11 1 17 -2 13 -5z m-145
-13 c7 11 8 9 4 -4 -3 -10 -6 -25 -6 -33 0 -8 -4 -14 -10 -14 -5 0 -10 15 -9
33 0 17 3 26 6 18 5 -11 7 -11 15 0z m-1282 -41 c0 -19 -11 -26 -23 -14 -8 8
3 34 14 34 5 0 9 -9 9 -20z m1521 -37 c-12 -20 -14 -14 -5 12 4 9 9 14 11 11
3 -2 0 -13 -6 -23z m121 -15 c-7 -7 -12 -8 -12 -2 0 14 12 26 19 19 2 -3 -1
-11 -7 -17z m-27 -159 c4 -12 13 -18 20 -15 9 3 12 0 8 -10 -8 -21 -16 -17
-35 16 -9 17 -13 30 -8 30 5 0 12 -9 15 -21z m-775 -2083 c0 -3 -4 -8 -10 -11
-5 -3 -10 -1 -10 4 0 6 5 11 10 11 6 0 10 -2 10 -4z"/>
<path d="M5840 6078 c0 -9 7 -24 16 -32 9 -9 17 -22 18 -29 3 -19 16 -37 27
-37 6 0 7 6 2 13 -4 6 -8 15 -8 19 0 7 -12 25 -42 66 -11 16 -12 16 -13 0z"/>
<path d="M5925 6070 c3 -5 8 -10 11 -10 2 0 4 5 4 10 0 6 -5 10 -11 10 -5 0
-7 -4 -4 -10z"/>
<path d="M5960 6840 c-8 -5 -24 -7 -35 -5 -11 3 -14 2 -7 -1 6 -3 12 -17 12
-32 0 -20 -3 -23 -12 -14 -15 15 -28 15 -28 1 0 -5 5 -7 11 -3 7 4 9 0 5 -12
-3 -11 -1 -26 4 -34 7 -11 10 -11 10 -2 0 7 5 10 11 7 7 -5 5 -13 -5 -24 -9
-10 -13 -21 -9 -26 5 -4 3 -6 -2 -2 -6 3 -17 2 -25 -4 -13 -7 -12 -9 3 -10 9
-1 23 -2 30 -3 18 -2 37 20 37 43 0 21 -32 46 -44 34 -3 -3 -6 -2 -6 4 0 6 7
13 15 17 8 3 15 15 15 27 0 17 5 20 25 17 14 -3 25 -1 25 3 0 5 -6 9 -12 9 -9
0 -8 4 2 10 8 5 11 10 5 10 -5 0 -17 -5 -25 -10z"/>
<path d="M5995 6750 c-17 -19 -17 -19 9 -7 14 7 26 15 26 20 0 13 -17 7 -35
-13z"/>
<path d="M1298 6708 l-98 -51 0 -98 c0 -114 -16 -109 133 -41 l87 41 0 100 c0
74 -3 101 -12 101 -7 0 -57 -24 -110 -52z"/>
<path d="M6025 6744 c-20 -15 -12 -17 19 -5 11 4 15 10 10 13 -5 4 -18 0 -29
-8z"/>
<path d="M6040 6709 c0 -6 7 -17 15 -25 12 -13 15 -12 24 4 6 11 7 22 4 26
-10 10 -43 7 -43 -5z"/>
<path d="M1803 6578 l-133 -81 0 -138 c0 -77 3 -139 6 -139 4 0 67 34 140 76
l134 75 0 145 c0 79 -3 144 -7 143 -5 0 -68 -37 -140 -81z"/>
<path d="M5895 6649 c-11 -16 -1 -19 13 -3 7 8 8 14 3 14 -5 0 -13 -5 -16 -11z"/>
<path d="M5877 6613 c-4 -3 -7 -11 -7 -17 0 -6 5 -5 12 2 6 6 9 14 7 17 -3 3
-9 2 -12 -2z"/>
<path d="M5901 6604 c0 -11 3 -14 6 -6 3 7 2 16 -1 19 -3 4 -6 -2 -5 -13z"/>
<path d="M5861 6554 c0 -11 3 -14 6 -6 3 7 2 16 -1 19 -3 4 -6 -2 -5 -13z"/>
<path d="M5888 6545 c-6 -30 -3 -43 8 -33 3 4 4 19 2 35 l-3 28 -7 -30z"/>
<path d="M3603 6412 l-273 -137 0 -267 c0 -148 3 -268 6 -268 3 0 127 61 275
136 l269 135 0 270 c0 148 -1 269 -2 268 -2 0 -126 -62 -275 -137z"/>
<path d="M5850 6515 c0 -8 2 -15 4 -15 2 0 6 7 10 15 3 8 1 15 -4 15 -6 0 -10
-7 -10 -15z"/>
<path d="M5910 6511 c0 -14 4 -20 11 -15 8 4 9 -1 4 -17 -4 -13 -6 -22 -3 -19
27 34 28 37 8 55 -19 18 -20 17 -20 -4z"/>
<path d="M2975 6411 l-230 -108 -3 -237 -2 -237 22 7 c12 3 118 53 235 110
l213 103 0 235 c0 130 -1 236 -2 235 -2 0 -106 -49 -233 -108z"/>
<path d="M5880 6490 c0 -5 5 -10 11 -10 5 0 7 5 4 10 -3 6 -8 10 -11 10 -2 0
-4 -4 -4 -10z"/>
<path d="M2373 6363 l-183 -86 0 -173 0 -172 174 78 c95 43 183 83 195 89 20
11 21 19 21 181 0 129 -3 170 -12 170 -7 0 -95 -39 -195 -87z"/>
<path d="M5757 6347 c-9 -12 -16 -28 -16 -37 1 -11 2 -11 6 3 2 9 9 15 14 12
5 -4 15 -2 23 2 12 6 12 11 2 25 -11 15 -13 14 -29 -5z"/>
<path d="M5893 6294 c-3 -8 -1 -20 6 -27 8 -8 11 -4 11 16 0 30 -7 35 -17 11z"/>
<path d="M5661 6273 c-10 -26 -10 -27 4 -9 8 11 15 23 15 28 0 15 -7 8 -19
-19z"/>
<path d="M5710 6286 c0 -8 6 -21 13 -28 8 -7 12 -20 10 -28 -4 -13 -3 -13 6
-1 6 10 5 23 -5 43 -16 31 -24 35 -24 14z"/>
<path d="M5757 6293 c-4 -3 -7 -11 -7 -17 0 -6 5 -5 12 2 6 6 9 14 7 17 -3 3
-9 2 -12 -2z"/>
<path d="M5866 6255 c-9 -26 -7 -32 5 -12 6 10 9 21 6 23 -2 3 -7 -2 -11 -11z"/>
<path d="M5691 6204 c0 -11 3 -14 6 -6 3 7 2 16 -1 19 -3 4 -6 -2 -5 -13z"/>
<path d="M5670 6172 c0 -4 10 -9 22 -9 18 -2 20 0 8 7 -18 12 -30 13 -30 2z"/>
<path d="M5337 6164 c-3 -3 -13 -7 -24 -8 -10 -2 -19 -11 -20 -22 -3 -18 -2
-18 6 1 5 11 10 14 10 7 1 -7 6 -10 11 -7 6 3 10 -3 10 -14 0 -25 15 -28 24
-5 9 24 7 31 -4 14 -8 -13 -10 -13 -10 2 0 9 5 18 12 20 8 3 9 6 1 11 -5 4
-13 4 -16 1z"/>
<path d="M5378 6158 c5 -5 16 -8 23 -6 8 3 3 7 -10 11 -17 4 -21 3 -13 -5z"/>
<path d="M5420 6160 c0 -5 5 -10 11 -10 5 0 7 5 4 10 -3 6 -8 10 -11 10 -2 0
-4 -4 -4 -10z"/>
<path d="M5635 6150 c4 -6 11 -8 16 -5 14 9 11 15 -7 15 -8 0 -12 -5 -9 -10z"/>
<path d="M5263 6126 c-4 -7 -15 -16 -23 -20 -8 -3 -3 -4 13 -1 19 4 26 1 25
-7 -4 -16 34 -17 39 -1 2 6 -6 13 -19 15 -13 2 -22 9 -20 16 3 16 -5 15 -15
-2z"/>
<path d="M5164 6118 c-3 -4 -10 -6 -15 -3 -5 4 -9 1 -9 -6 0 -8 -5 -7 -17 2
-14 12 -15 12 -9 0 7 -10 3 -12 -15 -7 -21 6 -21 5 4 -9 25 -15 29 -15 43 0
12 12 19 13 30 4 7 -6 19 -9 26 -6 8 3 5 6 -7 7 -17 2 -16 3 5 9 l25 7 -28 6
c-15 3 -30 1 -33 -4z"/>
<path d="M5390 6090 c-13 -8 -12 -10 3 -10 9 0 17 5 17 10 0 12 -1 12 -20 0z"/>
<path d="M5521 6084 c0 -11 3 -14 6 -6 3 7 2 16 -1 19 -3 4 -6 -2 -5 -13z"/>
<path d="M5018 6083 c7 -3 16 -2 19 1 4 3 -2 6 -13 5 -11 0 -14 -3 -6 -6z"/>
<path d="M4971 6071 c-8 -5 -21 -7 -30 -4 -11 4 -10 0 4 -11 20 -17 20 -17 -5
-10 -19 5 -22 4 -13 -6 9 -10 23 -8 65 6 29 9 48 19 41 21 -7 2 -21 0 -32 -6
-30 -16 -50 -12 -21 4 14 8 21 14 15 14 -5 1 -16 -3 -24 -8z"/>
<path d="M4470 6040 c8 -5 20 -10 25 -10 6 0 3 5 -5 10 -8 5 -19 10 -25 10 -5
0 -3 -5 5 -10z"/>
<path d="M5061 6041 c-8 -5 -21 -7 -30 -4 -14 4 -14 3 -1 -6 12 -9 8 -11 -20
-8 -19 2 -27 2 -17 0 9 -2 15 -9 12 -14 -3 -5 4 -4 17 1 13 6 31 13 41 16 9 4
17 10 17 15 0 11 -1 11 -19 0z"/>
<path d="M6495 6030 c3 -5 8 -10 11 -10 2 0 4 5 4 10 0 6 -5 10 -11 10 -5 0
-7 -4 -4 -10z"/>
<path d="M5670 6014 c0 -8 5 -12 10 -9 6 4 8 11 5 16 -9 14 -15 11 -15 -7z"/>
<path d="M4905 6010 c3 -5 12 -7 20 -3 21 7 19 13 -6 13 -11 0 -18 -4 -14 -10z"/>
<path d="M6270 6000 c0 -5 5 -10 10 -10 6 0 10 5 10 10 0 6 -4 10 -10 10 -5 0
-10 -4 -10 -10z"/>
<path d="M6224 5965 c-4 -14 -4 -29 0 -32 3 -4 6 3 6 13 0 11 5 25 12 32 9 9
9 12 0 12 -6 0 -14 -11 -18 -25z"/>
<path d="M6545 5980 c3 -5 11 -10 16 -10 6 0 7 5 4 10 -3 6 -11 10 -16 10 -6
0 -7 -4 -4 -10z"/>
<path d="M4178 5889 l-178 -89 0 -295 c0 -162 3 -295 6 -295 18 0 101 53 109
70 64 129 87 158 170 224 20 16 50 50 67 75 18 25 36 48 40 49 5 2 4 10 -2 17
-8 10 -7 17 3 26 8 8 12 21 10 30 -3 9 0 20 6 23 31 19 -9 257 -43 255 -6 0
-91 -41 -188 -90z"/>
<path d="M4930 5960 c-13 -8 -12 -10 3 -10 9 0 17 5 17 10 0 12 -1 12 -20 0z"/>
<path d="M5730 5956 c0 -2 7 -6 15 -10 8 -3 15 -1 15 4 0 6 -7 10 -15 10 -8 0
-15 -2 -15 -4z"/>
<path d="M6570 5950 c0 -5 5 -10 10 -10 6 0 10 5 10 10 0 6 -4 10 -10 10 -5 0
-10 -4 -10 -10z"/>
<path d="M5623 5935 c0 -11 4 -12 14 -4 7 6 13 13 13 15 0 2 -6 4 -13 4 -8 0
-14 -7 -14 -15z"/>
<path d="M6604 5924 c3 -9 6 -18 6 -20 0 -2 7 -4 15 -4 20 0 19 26 -1 34 -24
9 -27 8 -20 -10z"/>
<path d="M6206 5911 c-4 -7 -5 -15 -2 -18 9 -9 19 4 14 18 -4 11 -6 11 -12 0z"/>
<path d="M6244 5886 c-16 -12 -17 -17 -6 -28 11 -11 12 -10 7 3 -4 10 2 19 17
27 13 6 18 11 12 11 -5 1 -19 -5 -30 -13z"/>
<path d="M5840 5871 c0 -6 4 -13 10 -16 6 -3 7 1 4 9 -7 18 -14 21 -14 7z"/>
<path d="M5867 5869 c7 -7 15 -10 18 -7 3 3 -2 9 -12 12 -14 6 -15 5 -6 -5z"/>
<path d="M6642 5867 c1 -6 -4 -23 -11 -37 -14 -24 -13 -25 6 -7 11 9 25 17 31
17 6 0 9 6 6 14 -7 18 -36 30 -32 13z"/>
<path d="M3598 5724 l-268 -134 0 -265 c0 -154 4 -265 9 -265 5 0 128 61 273
135 l263 134 3 266 c1 146 -1 265 -5 264 -5 0 -128 -61 -275 -135z"/>
<path d="M4887 5823 c2 -13 -1 -23 -7 -23 -18 0 -11 -18 10 -25 11 -4 18 -11
14 -16 -4 -6 -11 -6 -20 2 -19 15 -18 0 2 -40 9 -18 13 -35 10 -38 -3 -4 -6
-1 -6 5 0 24 -15 11 -16 -13 -1 -14 2 -22 7 -19 15 9 10 -21 -7 -42 -8 -10
-13 -13 -9 -6 3 6 4 12 1 12 -6 0 -36 -60 -36 -71 0 -15 29 2 34 19 2 10 3 4
2 -13 -2 -21 4 -37 20 -52 14 -13 21 -28 18 -37 -9 -23 -23 -19 -17 4 4 14 -1
22 -18 29 -29 10 -36 6 -21 -12 7 -8 9 -17 6 -20 -13 -13 6 -58 23 -55 13 2
19 -7 24 -35 6 -37 29 -75 29 -48 0 7 -4 20 -9 30 -7 13 -6 18 5 18 7 0 14 -9
14 -19 0 -23 17 -24 23 0 3 9 6 -1 7 -23 1 -22 4 -32 7 -22 5 20 19 22 26 5 4
-9 6 -10 6 -1 1 6 -6 19 -15 28 -9 9 -13 19 -9 23 3 4 12 0 18 -8 16 -20 38
-24 31 -5 -4 8 -10 13 -14 10 -13 -8 -20 10 -9 25 8 13 11 12 20 -2 5 -10 15
-18 22 -18 7 0 6 4 -3 10 -12 7 -12 12 -3 21 15 15 20 3 26 -51 3 -29 4 -26 5
13 2 35 -2 49 -14 54 -9 3 -20 0 -25 -8 -7 -11 -9 -11 -9 4 0 9 -4 17 -10 17
-5 0 -10 -4 -10 -10 0 -5 -4 -10 -10 -10 -5 0 -7 7 -4 15 4 8 2 15 -4 15 -5 0
-16 21 -25 46 -13 39 -13 50 -1 72 7 14 11 29 8 34 -3 4 2 15 10 24 9 8 16 24
16 33 0 20 23 44 34 36 3 -3 2 1 -4 7 -5 7 -10 27 -10 45 0 33 -23 47 -34 21
-2 -7 -4 -2 -3 12 2 18 -3 25 -16 24 -13 -2 -16 3 -12 17 4 13 2 19 -9 19 -9
0 -16 5 -16 10 0 6 -5 10 -12 10 -6 0 -3 -10 8 -22 18 -20 18 -21 1 -15 -10 4
-22 7 -27 7 -5 0 -10 6 -13 13 -2 6 -2 2 0 -10z m28 -33 c-3 -5 -10 -10 -16
-10 -5 0 -9 5 -9 10 0 6 7 10 16 10 8 0 12 -4 9 -10z m84 -104 c-9 -8 -10 -7
-5 7 3 10 7 28 7 40 2 16 3 14 6 -7 3 -16 -1 -34 -8 -40z m-9 -31 c0 -8 -2
-15 -4 -15 -2 0 -6 7 -10 15 -3 8 -1 15 4 15 6 0 10 -7 10 -15z m-97 -60 c-3
-9 -8 -14 -10 -11 -3 3 -2 9 2 15 9 16 15 13 8 -4z m96 -214 c-6 -2 -15 3 -20
10 -15 24 -10 29 11 11 12 -10 16 -18 9 -21z"/>
<path d="M6588 5843 c10 -4 10 -8 0 -21 -12 -15 -11 -16 4 -3 19 14 15 32 -5
30 -8 0 -8 -2 1 -6z"/>
<path d="M3059 5762 c-74 -37 -177 -87 -227 -111 l-92 -44 0 -233 0 -234 23 9
c12 5 108 51 212 101 105 51 200 96 213 101 22 8 22 9 22 244 0 129 -3 235 -7
234 -5 0 -69 -30 -144 -67z"/>
<path d="M6540 5813 c0 -13 5 -23 10 -23 13 0 13 11 0 30 -8 12 -10 11 -10 -7z"/>
<path d="M6240 5790 c0 -11 5 -20 10 -20 6 0 10 9 10 20 0 11 -4 20 -10 20 -5
0 -10 -9 -10 -20z"/>
<path d="M6587 5793 c-3 -5 -2 -15 2 -22 5 -7 11 -9 14 -4 3 5 2 15 -2 22 -5
7 -11 9 -14 4z"/>
<path d="M6693 5785 c-7 -8 -9 -16 -4 -20 5 -3 12 -1 16 5 4 6 11 8 16 5 5 -3
6 1 3 9 -7 19 -15 20 -31 1z"/>
<path d="M6635 5769 c-4 -6 -5 -12 -2 -15 2 -3 7 2 10 11 7 17 1 20 -8 4z"/>
<path d="M5100 5691 c0 -44 4 -82 9 -86 12 -7 22 23 16 50 -2 11 -4 41 -4 68
-1 26 -5 47 -11 47 -6 0 -10 -33 -10 -79z"/>
<path d="M5258 5763 c6 -2 18 -2 25 0 6 3 1 5 -13 5 -14 0 -19 -2 -12 -5z"/>
<path d="M5330 5739 c12 -16 24 -28 27 -25 6 6 -29 55 -40 56 -5 0 1 -14 13
-31z"/>
<path d="M5205 5750 c3 -5 13 -10 21 -10 16 0 19 -16 4 -25 -21 -13 -9 -23 14
-12 14 7 22 14 20 16 -3 3 6 11 18 18 22 13 22 13 -9 8 -18 -4 -34 -2 -38 4
-3 6 -13 11 -21 11 -8 0 -12 -4 -9 -10z"/>
<path d="M6320 5755 c0 -2 10 -10 23 -16 20 -11 21 -11 8 4 -13 16 -31 23 -31
12z"/>
<path d="M4824 5721 c0 -21 7 -36 16 -38 10 -3 11 -2 3 4 -6 4 -13 22 -16 38
-4 27 -5 27 -3 -4z"/>
<path d="M4852 5730 c0 -14 2 -19 5 -12 2 6 2 18 0 25 -3 6 -5 1 -5 -13z"/>
<path d="M4445 5730 c-3 -5 -1 -10 6 -10 7 0 4 -7 -7 -15 -17 -13 -16 -14 14
-4 17 6 32 16 32 22 0 6 -3 7 -7 4 -3 -4 -12 -2 -19 4 -8 7 -14 7 -19 -1z"/>
<path d="M6380 5736 c0 -2 7 -6 15 -10 8 -3 15 -1 15 4 0 6 -7 10 -15 10 -8 0
-15 -2 -15 -4z"/>
<path d="M6746 5714 c-8 -22 -8 -26 4 -19 6 3 10 -1 10 -9 0 -9 5 -16 10 -16
14 0 12 22 -4 43 -12 16 -14 16 -20 1z"/>
<path d="M5280 5713 c0 -5 11 -8 25 -8 14 0 25 3 25 8 0 4 -11 7 -25 7 -14 0
-25 -3 -25 -7z"/>
<path d="M4434 5680 c-24 -9 -41 -30 -26 -30 6 0 20 9 33 20 26 21 25 23 -7
10z"/>
<path d="M5153 5683 c-7 -3 -13 -14 -13 -26 0 -21 0 -21 16 1 17 25 16 32 -3
25z"/>
<path d="M5378 5683 c7 -3 16 -2 19 1 4 3 -2 6 -13 5 -11 0 -14 -3 -6 -6z"/>
<path d="M6602 5660 c-7 -11 -9 -20 -4 -20 10 0 32 22 32 32 0 15 -15 8 -28
-12z"/>
<path d="M6715 5667 c-9 -20 10 -47 33 -47 14 0 14 1 0 13 -9 6 -18 21 -21 32
-4 18 -5 19 -12 2z"/>
<path d="M4840 5655 c0 -8 5 -15 10 -15 6 0 10 7 10 15 0 8 -4 15 -10 15 -5 0
-10 -7 -10 -15z"/>
<path d="M5021 5657 c0 -10 -8 -25 -16 -33 -8 -9 -15 -23 -14 -32 0 -14 2 -14
6 -2 4 8 13 20 21 26 8 6 12 20 9 35 -3 15 -5 17 -6 6z"/>
<path d="M5402 5663 c-10 -4 -9 -8 5 -19 22 -16 33 -18 33 -4 0 6 -8 10 -17
11 -15 0 -15 2 2 9 22 9 0 12 -23 3z"/>
<path d="M4820 5638 c0 -9 5 -20 10 -23 13 -8 13 5 0 25 -8 13 -10 13 -10 -2z"/>
<path d="M6630 5638 c0 -9 -6 -19 -12 -21 -10 -4 -10 -6 0 -6 14 -1 28 26 18
36 -3 4 -6 -1 -6 -9z"/>
<path d="M6092 5604 c-7 -8 -8 -14 -3 -14 10 0 25 19 20 25 -2 1 -10 -3 -17
-11z"/>
<path d="M6261 5611 c-7 -5 -11 -15 -9 -22 3 -8 -8 -22 -25 -32 -16 -10 -27
-21 -24 -24 4 -3 13 2 22 11 9 9 21 16 26 16 6 0 17 7 26 16 9 8 21 13 28 11
6 -3 12 1 12 9 0 7 -4 11 -8 8 -4 -2 -10 0 -14 6 -8 12 -16 12 -34 1z m18 -22
c-16 -10 -23 -4 -14 10 3 6 11 8 17 5 6 -4 5 -9 -3 -15z"/>
<path d="M6780 5600 c6 -11 15 -20 19 -20 5 0 7 9 4 20 -3 11 -12 20 -20 20
-11 0 -11 -4 -3 -20z"/>
<path d="M5075 5594 c9 -9 19 -13 23 -10 3 4 0 11 -8 16 -24 15 -33 11 -15 -6z"/>
<path d="M5420 5595 c0 -8 2 -15 4 -15 2 0 6 7 10 15 3 8 1 15 -4 15 -6 0 -10
-7 -10 -15z"/>
<path d="M5980 5599 c0 -5 5 -7 10 -4 6 3 10 8 10 11 0 2 -4 4 -10 4 -5 0 -10
-5 -10 -11z"/>
<path d="M6193 5603 c-7 -3 -13 -9 -13 -14 0 -4 8 -5 18 -2 15 6 15 5 3 -10
-20 -25 -10 -29 19 -7 19 15 21 20 8 20 -9 0 -18 4 -20 9 -1 4 -9 6 -15 4z"/>
<path d="M6357 5591 c-4 -17 -3 -21 5 -13 5 5 8 16 6 23 -3 8 -7 3 -11 -10z"/>
<path d="M6404 5603 c3 -4 1 -12 -5 -19 -11 -14 6 -14 28 -1 9 6 12 2 10 -14
-1 -12 4 -23 11 -25 7 -1 8 0 2 3 -5 2 -10 9 -10 14 0 6 9 5 21 -1 11 -6 30
-9 42 -7 18 3 17 5 -6 6 -16 0 -26 4 -24 9 3 4 1 16 -4 27 -7 19 -8 19 -8 1
-1 -16 -3 -17 -17 -5 -16 13 -52 23 -40 12z"/>
<path d="M6523 5591 c0 -11 5 -18 9 -15 4 3 5 11 1 19 -7 21 -12 19 -10 -4z"/>
<path d="M6717 5581 c-8 -33 2 -57 26 -58 17 -2 19 0 7 7 -11 7 -12 12 -3 18
8 5 7 14 -6 31 -18 23 -18 23 -24 2z"/>
<path d="M5030 5578 c0 -6 3 -8 7 -5 3 4 13 -2 21 -14 10 -15 11 -24 3 -32 -8
-8 -11 -7 -11 6 0 9 -5 17 -11 17 -6 0 -9 -6 -6 -14 3 -7 0 -19 -6 -25 -8 -8
-8 -11 1 -11 7 0 12 6 12 13 0 9 2 9 9 -1 6 -11 10 -10 15 4 6 16 9 16 17 4 7
-11 8 -6 3 15 -9 39 -54 75 -54 43z"/>
<path d="M6046 5574 c-4 -9 -13 -14 -22 -10 -9 3 -12 2 -9 -4 4 -6 -9 -13 -27
-17 -33 -7 -32 -7 22 -19 37 -9 59 -10 70 -3 13 9 12 10 -2 5 -10 -3 -25 -3
-33 0 -11 5 -12 10 -3 24 7 10 15 17 18 15 4 -2 7 2 7 10 0 20 -13 19 -21 -1z"/>
<path d="M5012 5555 c0 -16 2 -22 5 -12 2 9 2 23 0 30 -3 6 -5 -1 -5 -18z"/>
<path d="M5910 5560 c0 -5 5 -10 11 -10 5 0 7 5 4 10 -3 6 -8 10 -11 10 -2 0
-4 -4 -4 -10z"/>
<path d="M6120 5540 c-5 -10 -6 -21 -2 -24 4 -4 -1 -12 -11 -17 -18 -11 -14
-29 6 -29 8 0 8 3 2 8 -7 4 -2 16 11 30 18 19 23 20 28 7 3 -8 0 -15 -6 -15
-6 0 -9 -3 -6 -6 4 -3 16 -1 28 6 21 11 64 5 56 -9 -3 -4 3 -7 13 -7 10 0 18
5 18 11 0 11 -16 15 -68 17 -14 1 -26 7 -26 14 0 7 4 11 9 8 4 -3 8 -1 8 4 0
19 -50 20 -60 2z"/>
<path d="M4976 5541 c-4 -7 -5 -15 -2 -18 9 -9 19 4 14 18 -4 11 -6 11 -12 0z"/>
<path d="M6809 5538 c-7 -16 -4 -70 4 -75 6 -4 8 0 4 10 -3 10 -2 17 3 17 5 0
9 11 8 25 -2 20 -14 34 -19 23z"/>
<path d="M5448 5523 c-10 -2 -18 -9 -18 -14 0 -6 7 -6 18 -1 9 5 24 12 32 15
13 5 13 5 0 5 -8 0 -23 -2 -32 -5z"/>
<path d="M6550 5521 c0 -7 -4 -9 -10 -6 -5 3 -10 1 -10 -5 0 -6 -4 -9 -9 -5
-5 3 -13 1 -16 -5 -4 -6 -3 -10 2 -9 21 4 22 -3 6 -28 -10 -15 -13 -24 -6 -20
6 4 18 1 25 -7 9 -9 20 -11 35 -5 13 5 23 5 23 0 0 -5 -5 -11 -12 -13 -9 -3
-9 -6 0 -12 7 -4 12 -2 12 4 0 6 5 8 11 4 8 -5 8 -1 0 13 -7 14 -17 19 -34 16
-14 -3 -28 1 -32 8 -6 9 -3 11 9 6 9 -4 15 -3 11 2 -3 5 0 11 7 13 9 3 9 6 0
12 -7 4 -12 2 -12 -3 0 -6 -4 -11 -10 -11 -14 0 -8 23 10 37 8 6 12 15 7 19
-4 4 -7 2 -7 -5z"/>
<path d="M5472 5503 c-18 -8 -30 -18 -28 -20 7 -7 66 20 66 29 0 10 1 10 -38
-9z"/>
<path d="M6023 5498 c1 -7 -4 -12 -11 -10 -8 1 -11 -2 -7 -8 5 -8 11 -8 21 1
7 6 11 15 8 20 -8 13 -14 11 -11 -3z"/>
<path d="M6743 5497 c0 -8 6 -14 14 -13 18 3 18 20 0 24 -7 2 -14 -4 -14 -11z"/>
<path d="M6850 5479 c7 -11 14 -19 16 -16 7 7 -7 37 -17 37 -6 0 -5 -9 1 -21z"/>
<path d="M5037 5483 c-4 -3 -7 -11 -7 -17 0 -6 5 -5 12 2 6 6 9 14 7 17 -3 3
-9 2 -12 -2z"/>
<path d="M5056 5464 c-4 -15 -5 -29 -1 -32 3 -3 5 0 5 7 0 7 4 10 9 7 4 -3 6
6 3 19 -6 32 -8 31 -16 -1z"/>
<path d="M5081 5480 c0 -8 4 -22 9 -30 12 -18 12 -2 0 25 -6 13 -9 15 -9 5z"/>
<path d="M5498 5483 c7 -3 16 -2 19 1 4 3 -2 6 -13 5 -11 0 -14 -3 -6 -6z"/>
<path d="M5001 5464 c0 -11 3 -14 6 -6 3 7 2 16 -1 19 -3 4 -6 -2 -5 -13z"/>
<path d="M4619 5459 c-9 -4 -23 -25 -31 -46 -9 -21 -19 -45 -23 -53 -13 -32
-31 -55 -45 -58 -8 -2 -23 -14 -33 -28 -10 -13 -23 -22 -28 -19 -10 7 -14 -11
-29 -117 -9 -62 -8 -82 3 -110 18 -43 58 -75 104 -84 29 -5 40 -2 71 23 48 38
82 100 89 160 2 26 11 56 19 67 17 24 18 40 3 30 -7 -4 -9 0 -6 12 3 11 8 29
12 41 3 13 -2 35 -15 58 -11 20 -18 40 -15 44 2 5 -4 20 -15 33 -11 14 -17 27
-15 30 10 9 -32 25 -46 17z m19 -266 c-5 -25 -28 -28 -28 -4 0 12 6 21 16 21
9 0 14 -7 12 -17z m-143 -90 c6 -28 53 -83 79 -93 17 -7 14 -9 -17 -9 -51 -1
-76 14 -93 56 -14 31 -13 40 3 86 l18 52 3 -35 c1 -19 5 -45 7 -57z m55 78 c0
-5 -7 -11 -15 -15 -9 -3 -15 0 -15 9 0 8 7 15 15 15 8 0 15 -4 15 -9z"/>
<path d="M4815 5460 c3 -5 8 -10 11 -10 2 0 4 5 4 10 0 6 -5 10 -11 10 -5 0
-7 -4 -4 -10z"/>
<path d="M5490 5466 c0 -2 7 -6 15 -10 8 -3 15 -1 15 4 0 6 -7 10 -15 10 -8 0
-15 -2 -15 -4z"/>
<path d="M6783 5454 c0 -7 4 -11 8 -8 4 2 9 -1 11 -8 3 -7 7 -8 11 -2 3 5 -2
15 -12 21 -14 9 -18 8 -18 -3z"/>
<path d="M5598 5435 c36 -30 39 -30 51 -7 7 14 6 18 -9 18 -10 0 -16 -4 -14
-8 3 -4 1 -8 -4 -8 -6 0 -12 7 -16 15 -3 8 -13 15 -21 15 -12 0 -7 -8 13 -25z"/>
<path d="M5837 5445 c-12 -11 -17 -12 -21 -2 -3 6 -3 -1 1 -18 6 -34 -12 -25
-20 10 -4 18 -5 17 -6 -3 -1 -30 20 -54 35 -38 6 6 9 17 6 24 -2 7 2 10 12 6
9 -3 22 -1 30 5 7 6 16 8 19 4 4 -3 7 -1 7 5 0 6 -4 14 -10 17 -5 3 -10 1 -10
-6 0 -9 -3 -9 -14 0 -11 9 -17 8 -29 -4z m28 -5 c3 -5 -1 -10 -10 -10 -9 0
-13 5 -10 10 3 6 8 10 10 10 2 0 7 -4 10 -10z"/>
<path d="M6700 5439 c-10 -18 -9 -20 7 -17 10 2 19 11 21 21 5 24 -15 21 -28
-4z"/>
<path d="M5663 5426 c-12 -13 -18 -27 -15 -31 4 -4 -19 5 -52 19 -41 18 -76
26 -118 26 -82 0 -116 -21 -167 -104 -13 -20 -27 -36 -32 -36 -5 0 -9 -4 -9
-10 0 -12 -32 -50 -42 -50 -5 0 -8 5 -8 11 0 5 4 8 9 5 5 -3 11 1 15 9 3 8 0
17 -6 21 -7 4 -8 3 -4 -4 7 -11 -6 -17 -27 -13 -5 1 -6 -3 -3 -8 7 -11 -28
-21 -42 -12 -6 3 -16 19 -21 34 -6 16 -15 26 -20 22 -5 -3 -11 3 -14 12 -2 10
-4 7 -3 -6 1 -13 -5 -26 -12 -28 -8 -3 -10 2 -6 14 5 14 4 15 -4 3 -6 -8 -9
-18 -6 -22 3 -4 0 -18 -6 -30 -11 -23 -11 -23 5 -3 16 19 17 19 10 -15 -10
-47 -13 -152 -4 -142 4 4 9 18 11 32 3 21 6 17 16 -20 9 -35 11 -38 8 -12 -1
18 1 35 6 38 5 3 8 2 7 -3 -3 -18 2 -33 11 -33 6 0 19 -9 30 -20 12 -12 25
-18 30 -15 6 4 10 -2 11 -12 0 -10 3 -13 6 -6 2 7 -3 23 -11 35 -9 12 -16 17
-16 10 0 -20 -16 -13 -17 8 -2 21 21 28 32 10 3 -5 11 -10 17 -10 7 0 6 6 -2
15 -9 11 -9 15 -1 15 18 0 25 -31 10 -42 -10 -7 -7 -8 11 -3 23 6 24 5 7 -8
-15 -13 -15 -16 -2 -27 8 -6 20 -10 27 -7 8 4 7 6 -4 6 -10 1 -18 6 -18 12 0
6 7 9 15 6 8 -4 17 -2 20 4 4 5 11 6 18 2 6 -4 25 -8 42 -10 22 -2 26 0 15 7
-13 8 -13 10 2 10 9 0 20 -4 23 -10 3 -5 11 -10 17 -10 7 0 6 6 -2 15 -13 16
-1 21 16 6 15 -14 74 -22 74 -9 0 7 12 8 33 4 20 -4 27 -3 18 3 -10 7 -6 11
18 16 31 7 41 20 19 27 -7 3 -5 7 6 11 11 5 15 3 11 -6 -3 -6 0 -4 7 7 7 10
25 33 41 50 15 17 25 36 23 43 -3 6 3 22 13 35 10 13 21 30 24 38 4 12 6 12 6
1 1 -8 -6 -23 -16 -33 -9 -10 -12 -18 -7 -18 18 0 34 24 34 52 0 22 3 26 18
21 15 -6 15 -5 3 10 -21 26 -6 32 20 8 12 -11 26 -18 30 -15 4 2 11 -1 15 -7
4 -8 3 -9 -4 -5 -7 4 -12 2 -12 -5 0 -9 -3 -9 -14 1 -13 10 -14 7 -10 -14 5
-27 -12 -37 -18 -11 -2 9 -12 -1 -24 -24 -17 -31 -18 -38 -6 -33 11 4 14 1 9
-11 -3 -8 -9 -33 -13 -54 l-8 -38 -7 49 c-4 27 -13 54 -20 60 -9 8 -10 8 -5
-2 4 -7 1 -23 -7 -36 -12 -17 -13 -26 -4 -35 8 -8 8 -20 -2 -47 -7 -19 -10
-38 -7 -41 3 -3 8 6 12 21 6 27 24 36 24 14 1 -19 22 21 41 75 9 26 12 47 7
47 -4 0 -8 7 -8 15 0 8 5 15 10 15 6 0 10 -5 10 -12 0 -7 10 2 23 18 12 17 27
29 34 27 8 -3 10 4 7 21 -3 16 0 26 7 26 8 0 9 4 0 13 -6 8 -10 16 -8 18 1 3
-5 -3 -15 -13 -24 -27 -33 -22 -13 8 9 15 12 23 6 20 -7 -5 -11 2 -12 16 -1
23 -1 23 -8 -2 -5 -16 -13 -24 -24 -22 -10 2 -21 -6 -26 -19 l-8 -23 -6 24
c-6 25 18 64 34 54 8 -5 34 35 26 42 -2 2 -16 -7 -31 -21 -21 -20 -31 -23 -41
-15 -10 8 -16 7 -24 -7 -6 -10 -11 -13 -11 -8 0 6 7 21 16 33 20 29 13 28 -13
-2z m110 -71 c-3 -9 -8 -14 -10 -11 -3 3 -2 9 2 15 9 16 15 13 8 -4z m-329
-11 c28 -11 19 -35 -11 -32 -20 2 -28 -2 -31 -15 -8 -39 10 -88 44 -122 19
-19 33 -35 32 -35 -2 0 -18 -4 -35 -9 -28 -8 -38 -5 -73 20 -47 34 -52 67 -19
139 26 58 48 71 93 54z m-317 -58 c-3 -8 -1 -17 6 -20 9 -5 9 -7 -1 -12 -6 -3
-10 -10 -6 -15 3 -5 -2 -9 -10 -9 -9 0 -16 -7 -16 -17 0 -9 -3 -14 -6 -10 -4
3 -3 14 1 24 5 10 7 22 6 26 -2 10 18 47 25 47 4 0 4 -6 1 -14z m565 -136 c2
-22 3 -40 1 -40 -1 0 -8 13 -16 29 -11 21 -12 32 -4 40 15 15 14 16 19 -29z
m-132 -49 c0 -8 -74 -31 -100 -31 -27 0 3 17 31 18 17 0 37 6 42 11 13 13 27
14 27 2z m-283 -16 c9 -24 -1 -27 -15 -5 -8 13 -8 20 -2 20 6 0 13 -7 17 -15z"/>
<path d="M5916 5441 c-3 -4 4 -7 14 -8 11 -1 22 2 24 6 3 4 -4 7 -14 8 -11 1
-22 -2 -24 -6z"/>
<path d="M6620 5424 c6 -15 5 -24 -3 -28 -9 -3 -9 -5 1 -5 6 -1 12 -6 12 -12
0 -5 -4 -7 -10 -4 -5 3 -10 1 -10 -4 0 -6 -9 -11 -19 -11 -28 0 -33 -15 -12
-34 18 -16 51 -13 51 6 0 5 5 6 10 3 6 -3 10 -2 10 4 0 5 -4 12 -8 15 -5 3 -8
25 -7 49 2 30 -2 44 -11 44 -9 0 -10 -7 -4 -23z m10 -73 c0 -21 -25 -29 -45
-14 -19 15 -19 15 8 9 19 -5 26 -3 22 4 -3 5 -1 10 4 10 6 0 11 -4 11 -9z"/>
<path d="M6890 5406 c0 -9 5 -16 10 -16 6 0 10 4 10 9 0 6 -4 13 -10 16 -5 3
-10 -1 -10 -9z"/>
<path d="M6825 5380 c-7 -12 -4 -110 4 -110 3 0 6 27 6 60 0 64 0 66 -10 50z"/>
<path d="M4761 5370 c0 -18 27 -79 28 -64 1 7 -6 27 -14 45 -8 19 -14 27 -14
19z"/>
<path d="M5095 5369 c-4 -6 -5 -12 -2 -15 2 -3 7 2 10 11 7 17 1 20 -8 4z"/>
<path d="M4786 5357 c3 -10 9 -15 12 -12 3 3 0 11 -7 18 -10 9 -11 8 -5 -6z"/>
<path d="M6685 5360 c-4 -6 -11 -8 -16 -5 -5 4 -9 -4 -9 -17 1 -21 2 -22 14
-5 18 23 46 12 46 -19 0 -13 5 -24 10 -24 6 0 10 18 10 40 0 36 -3 40 -24 40
-14 0 -28 -5 -31 -10z"/>
<path d="M4812 5320 c0 -19 2 -27 5 -17 2 9 2 25 0 35 -3 9 -5 1 -5 -18z"/>
<path d="M5051 5317 c-1 -19 -5 -26 -13 -21 -7 5 -8 3 -3 -5 11 -19 27 3 22
30 -4 22 -4 21 -6 -4z"/>
<path d="M6802 5310 c0 -19 2 -27 5 -17 2 9 2 25 0 35 -3 9 -5 1 -5 -18z"/>
<path d="M6680 5320 c0 -5 5 -10 10 -10 6 0 10 5 10 10 0 6 -4 10 -10 10 -5 0
-10 -4 -10 -10z"/>
<path d="M6625 5302 c-15 -11 -17 -32 -2 -26 8 3 14 11 14 19 0 8 -1 15 -1 15
-1 0 -5 -4 -11 -8z"/>
<path d="M4745 5259 c-4 -17 -4 -33 -1 -36 3 -4 6 1 6 10 0 10 4 17 9 17 13 0
35 -30 27 -37 -4 -4 -11 -1 -16 7 -9 14 -12 7 -9 -16 0 -3 -7 -17 -16 -32
l-16 -27 25 28 c28 30 41 35 33 12 -4 -8 -3 -16 1 -19 4 -2 8 15 9 39 2 36 -1
45 -18 50 -12 4 -18 12 -15 21 3 8 1 14 -4 14 -4 0 -11 -14 -15 -31z"/>
<path d="M4960 5270 c0 -11 2 -20 4 -20 2 0 6 9 9 20 3 11 1 20 -4 20 -5 0 -9
-9 -9 -20z"/>
<path d="M6666 5275 c-3 -9 -12 -15 -20 -13 -8 2 -14 -1 -13 -7 4 -21 67 4 67
26 0 15 -28 10 -34 -6z"/>
<path d="M5770 5240 c0 -5 5 -10 10 -10 6 0 10 5 10 10 0 6 -4 10 -10 10 -5 0
-10 -4 -10 -10z"/>
<path d="M6666 5215 c5 -11 11 -12 25 -4 26 13 24 19 -6 19 -17 0 -23 -4 -19
-15z"/>
<path d="M6626 5212 c6 -4 10 -15 8 -24 -3 -20 1 -21 31 -8 18 8 18 9 -5 9
-18 1 -21 4 -12 10 11 7 10 10 -3 15 -22 8 -33 7 -19 -2z"/>
<path d="M3598 5074 l-268 -134 0 -265 c0 -146 3 -265 7 -265 10 0 526 260
541 273 11 9 13 62 10 269 -2 163 -7 258 -13 257 -5 0 -130 -61 -277 -135z"/>
<path d="M6703 5202 c-17 -11 -21 -54 -5 -59 6 -3 12 0 12 7 0 6 -5 8 -12 4
-8 -5 -9 -2 -5 10 4 10 7 21 7 24 0 4 5 0 10 -8 7 -12 9 -10 7 8 0 12 -1 22
-2 22 0 0 -6 -4 -12 -8z"/>
<path d="M4890 5191 c0 -6 4 -13 10 -16 6 -3 7 1 4 9 -7 18 -14 21 -14 7z"/>
<path d="M5746 5183 c-3 -10 -9 -24 -12 -30 -3 -7 -2 -13 3 -13 5 0 14 14 20
30 6 17 8 30 3 30 -4 0 -10 -8 -14 -17z"/>
<path d="M4922 5165 c0 -16 2 -22 5 -12 2 9 2 23 0 30 -3 6 -5 -1 -5 -18z"/>
<path d="M4048 5154 l-48 -24 0 -295 c0 -162 2 -295 5 -295 3 0 33 14 65 31
42 22 60 37 60 51 0 10 -5 16 -10 13 -7 -4 -8 7 -4 34 4 25 2 46 -5 54 -7 9
-11 78 -11 198 0 101 -1 193 -1 204 -1 11 1 28 6 38 9 22 0 21 -57 -9z"/>
<path d="M3100 5128 c-47 -22 -147 -70 -222 -106 l-138 -65 0 -234 c0 -128 2
-233 4 -233 2 0 89 41 192 91 104 50 208 100 232 110 l42 18 0 231 c0 178 -3
230 -12 229 -7 0 -51 -19 -98 -41z"/>
<path d="M4860 5154 c0 -10 6 -14 15 -10 8 3 15 0 15 -6 0 -6 2 -9 5 -6 3 3 3
13 -1 22 -8 21 -34 21 -34 0z"/>
<path d="M6655 5160 c-3 -5 -1 -10 4 -10 6 0 11 5 11 10 0 6 -2 10 -4 10 -3 0
-8 -4 -11 -10z"/>
<path d="M5626 5145 c-3 -9 -2 -13 4 -10 6 3 10 3 10 -2 0 -17 -19 -37 -47
-50 -22 -10 -23 -12 -6 -9 20 3 22 0 19 -25 -3 -32 -16 -52 -16 -25 0 13 -4
15 -19 7 -10 -6 -22 -7 -27 -3 -5 4 -3 0 4 -9 6 -9 10 -18 7 -21 -3 -2 2 -5
10 -5 9 0 14 6 11 14 -4 10 1 9 18 -3 16 -10 26 -12 31 -5 3 6 1 11 -6 11 -8
0 -8 4 1 15 7 8 15 13 19 11 3 -2 5 14 3 36 -3 27 0 43 9 49 12 7 11 11 -2 24
-15 15 -17 15 -23 0z m-6 -102 c-11 -17 -11 -17 -6 0 3 10 7 26 7 35 1 15 2
15 6 0 2 -10 -1 -25 -7 -35z"/>
<path d="M4780 5117 c-8 -12 -13 -25 -12 -29 1 -5 -2 -8 -8 -8 -5 0 -10 -5
-10 -10 0 -7 6 -7 19 0 25 13 34 13 26 0 -3 -6 1 -7 10 -4 12 5 13 10 5 20 -7
7 -19 10 -28 7 -14 -6 -15 -5 -2 9 10 10 27 14 48 12 17 -2 32 -1 32 4 0 4
-12 8 -27 7 -16 0 -30 3 -33 7 -3 4 -12 -3 -20 -15z"/>
<path d="M6741 5114 c0 -11 3 -14 6 -6 3 7 2 16 -1 19 -3 4 -6 -2 -5 -13z"/>
<path d="M4810 5100 c0 -5 7 -10 16 -10 8 0 12 5 9 10 -3 6 -10 10 -16 10 -5
0 -9 -4 -9 -10z"/>
<path d="M5082 5045 c-15 -32 -15 -52 -1 -61 8 -4 9 0 4 15 -3 11 -1 29 5 38
10 17 10 17 8 -1 -2 -10 3 -21 10 -23 7 -3 10 1 6 11 -3 9 -1 16 5 16 6 0 11
-8 11 -17 0 -14 2 -15 13 -4 10 11 9 14 -1 18 -6 3 -10 9 -7 14 4 5 -1 6 -10
2 -10 -3 -20 -1 -24 6 -5 8 -12 3 -19 -14z"/>
<path d="M4769 5048 c-1 -7 -1 -19 0 -25 1 -7 -5 -13 -14 -13 -8 0 -15 -5 -15
-10 0 -7 6 -7 19 -1 10 6 21 8 25 6 3 -3 4 -2 1 2 -3 3 0 12 7 20 8 11 7 12
-6 7 -12 -5 -15 -2 -10 10 3 9 3 16 0 16 -3 0 -7 -6 -7 -12z"/>
<path d="M5446 5028 c10 -15 27 -28 38 -28 15 0 16 3 6 15 -7 9 -15 13 -18 10
-3 -3 -14 3 -26 12 -20 18 -20 18 0 -9z"/>
<path d="M5259 4998 c19 -20 27 -36 24 -52 -3 -13 0 -26 5 -30 6 -4 9 4 8 19
-2 13 1 22 5 19 5 -3 9 -1 9 4 0 6 -7 13 -16 16 -8 3 -12 11 -8 17 5 8 3 9 -6
4 -10 -6 -12 -4 -7 7 4 11 -2 17 -19 21 -24 4 -24 4 5 -25z"/>
<path d="M5382 5000 c-12 -10 -32 -17 -43 -15 -17 4 -19 2 -9 -10 7 -8 17 -12
24 -8 6 3 7 2 3 -3 -5 -5 -16 -9 -24 -9 -10 0 -17 -9 -18 -22 -2 -22 -1 -22
25 -3 15 10 42 19 61 19 42 -1 76 5 85 14 3 3 -8 4 -25 2 -29 -4 -57 15 -33
23 19 6 14 32 -5 32 -10 -1 -28 -9 -41 -20z m33 -40 c13 -6 15 -9 5 -9 -8 0
-22 4 -30 9 -18 12 -2 12 25 0z"/>
<path d="M5110 4985 c-10 -11 -10 -15 -1 -15 7 0 9 -5 5 -12 -5 -7 -3 -8 6 -3
9 6 10 2 5 -15 -5 -16 -4 -20 5 -15 6 4 10 16 7 26 -3 10 -1 19 3 21 4 2 2 8
-5 15 -10 10 -16 9 -25 -2z"/>
<path d="M4751 4981 c-14 -9 -23 -61 -10 -61 13 0 17 28 6 40 -9 10 -9 12 4 7
9 -3 16 0 16 9 0 8 -1 14 -1 14 -1 0 -7 -4 -15 -9z"/>
<path d="M7045 4936 c8 -26 10 -46 6 -46 -5 0 -11 -18 -15 -40 -3 -23 -10 -39
-15 -36 -5 3 -15 -15 -22 -40 -11 -36 -24 -53 -56 -76 -49 -33 -57 -54 -17
-44 l26 7 -19 -25 c-10 -13 -21 -22 -25 -20 -3 2 -4 -5 -1 -17 4 -16 8 -17 14
-7 6 9 9 9 9 1 0 -6 -9 -18 -21 -26 -12 -9 -16 -17 -10 -21 7 -5 1 -22 -15
-47 -14 -23 -23 -44 -19 -47 3 -4 10 0 15 8 6 8 10 11 10 7 0 -4 -18 -30 -40
-58 -22 -28 -40 -59 -40 -68 0 -10 -9 -26 -20 -36 -26 -24 -26 -38 1 -30 18 6
19 5 10 -13 -6 -11 -16 -23 -23 -26 -7 -4 -3 -4 9 -2 19 3 21 1 13 -14 -14
-26 -13 -29 10 -23 16 4 19 2 14 -11 -5 -12 -2 -15 10 -10 12 5 15 2 10 -10
-3 -9 -3 -16 1 -16 11 0 44 44 45 58 0 7 6 19 13 26 30 30 10 -193 -23 -254
-13 -23 -19 -91 -9 -84 5 3 9 10 9 15 0 6 14 24 30 41 17 17 37 45 45 62 7 17
14 24 15 16 1 -20 49 69 50 93 0 10 4 16 9 13 14 -9 23 23 29 114 4 75 8 88
34 115 33 36 35 45 7 38 -19 -5 -20 -4 -10 15 17 31 15 47 -4 32 -18 -15 -18
-10 -5 25 7 18 6 31 -2 45 -12 19 -13 19 -35 -2 -26 -24 -27 -18 -8 32 7 19
14 28 15 20 3 -37 21 40 19 85 -3 78 -1 93 11 75 7 -11 10 0 10 38 0 28 5 52
10 52 16 0 12 25 -9 51 -10 13 -22 38 -25 56 -4 17 -13 37 -21 43 -11 9 -11 4
0 -34z"/>
<path d="M5506 4957 c3 -10 9 -15 12 -12 3 3 0 11 -7 18 -10 9 -11 8 -5 -6z"/>
<path d="M5353 4922 c-9 -15 -8 -19 3 -19 7 0 11 4 8 8 -2 4 4 12 13 18 14 8
15 10 3 11 -8 0 -20 -8 -27 -18z"/>
<path d="M5420 4930 c-23 -7 -23 -8 -3 -9 12 -1 25 4 28 9 3 6 5 10 3 9 -2 -1
-14 -5 -28 -9z"/>
<path d="M1298 4699 l-98 -49 0 -100 c0 -55 3 -100 6 -100 3 0 53 21 110 47
l104 46 0 104 c0 76 -3 103 -12 102 -7 0 -57 -22 -110 -50z"/>
<path d="M4670 4732 c-146 -22 -240 -99 -240 -198 0 -44 27 -93 55 -99 11 -2
29 -6 40 -8 12 -3 6 -5 -13 -6 -30 -1 -33 -3 -26 -23 3 -13 11 -29 16 -35 7
-9 7 -13 0 -13 -14 0 -5 -28 16 -53 14 -16 14 -17 -1 -11 -13 5 -16 2 -11 -10
5 -12 2 -15 -10 -10 -18 7 -22 24 -6 24 6 0 10 5 10 10 0 17 -17 11 -25 -7 -4
-12 1 -24 14 -34 19 -16 19 -18 4 -24 -18 -6 -7 -19 73 -80 43 -33 64 -54 64
-66 0 -5 -6 -7 -12 -3 -10 5 -10 4 -1 -6 6 -7 9 -20 6 -29 -4 -13 -3 -14 5 -1
6 8 8 18 6 22 -3 4 -3 8 0 8 3 0 10 -10 17 -21 8 -16 8 -20 -1 -14 -9 6 -9 2
0 -16 16 -30 25 -39 17 -17 -4 12 -2 15 9 11 7 -3 14 -9 14 -13 0 -4 7 -11 16
-14 10 -4 13 -2 8 7 -4 6 1 4 11 -5 16 -15 20 -15 40 -2 20 13 23 13 29 -2 3
-8 4 -19 1 -23 -2 -4 2 -8 10 -8 10 0 11 5 4 19 -12 22 -3 24 17 3 9 -8 13
-19 9 -24 -9 -15 14 -24 29 -11 11 8 15 8 19 -2 2 -7 4 0 4 16 0 24 -1 26 -9
12 -9 -17 -11 -16 -29 3 -10 11 -19 22 -19 24 0 8 53 -2 63 -12 8 -8 16 -6 29
6 10 9 18 12 18 8 0 -4 9 0 19 9 13 12 21 14 26 6 5 -8 12 -5 21 9 9 13 21 18
31 14 11 -4 14 -3 9 5 -9 16 7 15 22 0 9 -9 12 -9 12 0 0 10 5 10 21 1 15 -8
19 -8 15 0 -4 6 -3 11 3 11 5 0 12 -6 14 -12 4 -10 6 -9 6 1 1 11 4 11 17 0
14 -11 18 -11 29 4 8 12 15 14 20 8 11 -19 24 -12 39 22 15 35 58 80 81 83 8
1 13 -1 10 -6 -3 -4 4 -6 15 -3 11 3 20 10 20 15 0 5 5 6 10 3 6 -3 10 -2 10
2 0 5 15 17 33 28 37 22 86 65 73 65 -5 0 -3 7 4 15 7 8 17 12 23 8 6 -4 3 -9
-9 -14 -13 -5 -14 -8 -4 -8 15 -1 70 44 70 57 -1 17 -21 37 -40 38 -11 1 -19
-1 -16 -3 5 -5 -53 -59 -66 -62 -4 -1 -19 -8 -34 -16 -15 -7 -33 -11 -40 -8
-8 3 -14 0 -14 -6 0 -6 -3 -10 -7 -9 -12 4 -83 -40 -83 -51 0 -6 -14 -18 -31
-26 -25 -14 -33 -14 -47 -3 -13 11 -14 11 -7 -1 6 -10 4 -12 -5 -6 -8 5 -37 7
-66 6 -46 -2 -52 0 -58 21 -9 34 -8 36 14 43 18 6 30 37 13 33 -12 -2 -46 13
-67 31 -11 9 -16 10 -12 4 4 -7 2 -13 -3 -13 -15 0 -14 13 2 29 10 10 8 12 -8
9 -11 -2 -19 -10 -17 -16 3 -18 -12 -14 -52 13 -20 14 -41 25 -46 25 -6 0 -10
5 -10 10 0 6 7 10 16 10 8 0 23 7 31 16 9 9 26 14 38 12 12 -3 22 0 22 7 0 7
-12 9 -29 7 -27 -4 -29 -3 -22 24 4 16 12 32 18 37 8 5 6 10 -4 16 -10 7 -17
6 -22 -2 -11 -17 -22 0 -13 20 5 10 7 24 6 31 -2 10 4 12 21 6 19 -6 21 -4 12
7 -7 8 -10 33 -7 57 3 37 0 47 -21 67 -35 32 -179 59 -256 47z m250 -406 c0
-11 -19 -15 -25 -6 -3 5 1 10 9 10 9 0 16 -2 16 -4z m635 -16 c-10 -11 -21
-17 -24 -14 -3 3 3 12 13 20 28 20 32 17 11 -6z m-537 -21 c24 -9 29 -24 11
-35 -6 -3 -15 0 -20 7 -7 12 -9 11 -9 -1 0 -13 -1 -13 -10 0 -9 13 -11 13 -20
0 -5 -8 -10 -10 -11 -5 0 6 -2 20 -3 33 -3 23 1 23 62 1z m-38 -83 c0 -2 -7
-7 -16 -10 -8 -3 -12 -2 -9 4 6 10 25 14 25 6z m50 -22 c0 -2 -9 0 -20 6 -11
6 -20 13 -20 16 0 2 9 0 20 -6 11 -6 20 -13 20 -16z m150 -124 c0 -5 -2 -10
-4 -10 -3 0 -8 5 -11 10 -3 6 -1 10 4 10 6 0 11 -4 11 -10z"/>
<path d="M1803 4568 l-133 -81 0 -143 c0 -79 2 -144 5 -144 3 0 66 34 140 76
l135 76 0 149 c0 82 -3 149 -7 148 -5 0 -68 -37 -140 -81z"/>
<path d="M3603 4402 l-273 -137 0 -272 c0 -150 3 -273 6 -273 3 0 34 15 67 33
34 19 158 83 275 142 l212 108 0 269 c0 147 -3 268 -7 268 -5 -1 -131 -63
-280 -138z"/>
<path d="M4058 4482 l-58 -27 0 -297 c0 -164 2 -298 4 -298 2 0 61 30 130 66
116 61 142 83 116 99 -12 8 -53 85 -45 85 4 0 -3 13 -15 30 -12 16 -18 34 -15
40 3 5 0 24 -8 42 -8 18 -15 48 -16 67 -1 18 -6 42 -11 52 -6 10 -9 31 -8 46
3 52 -2 123 -9 122 -5 0 -34 -12 -65 -27z"/>
<path d="M2968 4392 l-227 -107 -1 -237 c0 -131 2 -238 4 -238 7 0 122 53 299
138 l167 81 0 236 c0 129 -3 235 -7 234 -5 0 -110 -48 -235 -107z"/>
<path d="M5418 4493 c7 -3 16 -2 19 1 4 3 -2 6 -13 5 -11 0 -14 -3 -6 -6z"/>
<path d="M2373 4352 l-183 -87 0 -173 c0 -95 3 -171 8 -169 4 2 91 41 195 87
l187 84 0 173 c0 132 -3 173 -12 172 -7 0 -95 -40 -195 -87z"/>
<path d="M5125 4400 c-3 -5 1 -10 10 -10 9 0 13 5 10 10 -3 6 -8 10 -10 10 -2
0 -7 -4 -10 -10z"/>
<path d="M4940 4375 c0 -11 11 -15 48 -13 36 1 39 2 15 5 -18 2 -33 8 -33 14
0 5 -7 9 -15 9 -8 0 -15 -7 -15 -15z"/>
<path d="M5055 4360 c3 -5 13 -10 21 -10 8 0 12 5 9 10 -3 6 -13 10 -21 10 -8
0 -12 -4 -9 -10z"/>
<path d="M5466 4322 l-19 -27 24 22 c12 12 21 24 18 27 -2 2 -13 -8 -23 -22z"/>
<path d="M5115 4290 c-3 -5 1 -10 10 -10 9 0 13 5 10 10 -3 6 -8 10 -10 10 -2
0 -7 -4 -10 -10z"/>
<path d="M5299 4143 c-13 -16 -12 -17 4 -4 9 7 17 15 17 17 0 8 -8 3 -21 -13z"/>
<path d="M1298 4009 l-98 -49 0 -95 c0 -52 4 -95 8 -95 4 0 52 20 107 44 l100
44 3 101 c2 77 0 101 -10 100 -7 0 -57 -22 -110 -50z"/>
<path d="M4967 4013 c-4 -3 -7 -11 -7 -17 0 -6 5 -5 12 2 6 6 9 14 7 17 -3 3
-9 2 -12 -2z"/>
<path d="M4760 3973 c0 -10 4 -14 8 -8 4 6 11 13 16 18 5 4 2 7 -7 7 -10 0
-17 -8 -17 -17z"/>
<path d="M4906 3953 c-6 -14 -5 -15 5 -6 7 7 10 15 7 18 -3 3 -9 -2 -12 -12z"/>
<path d="M1803 3877 l-133 -81 0 -138 c0 -76 3 -138 8 -138 4 0 66 33 137 74
l130 73 3 147 c1 80 -1 146 -5 145 -5 0 -68 -37 -140 -82z"/>
<path d="M6136 3922 c-3 -5 -10 -22 -16 -37 -10 -25 -9 -27 5 -15 24 20 37 48
26 55 -5 3 -12 1 -15 -3z"/>
<path d="M4133 3852 l-133 -66 0 -293 c0 -228 3 -293 13 -292 6 0 138 67 292
147 301 158 295 153 280 226 -4 22 -20 41 -55 66 -27 19 -72 65 -100 102 -29
38 -55 68 -58 68 -4 0 -23 25 -42 55 -19 30 -42 54 -50 54 -8 -1 -75 -31 -147
-67z"/>
<path d="M3595 3715 l-260 -134 -3 -270 c-1 -170 1 -271 7 -271 9 0 141 67
446 226 l100 52 3 266 c2 249 1 266 -15 265 -10 0 -135 -61 -278 -134z"/>
<path d="M3085 3762 c-66 -32 -171 -82 -232 -112 l-113 -53 0 -239 c0 -131 2
-238 5 -238 5 0 50 21 318 148 l147 71 0 240 c0 133 -1 241 -2 241 -2 0 -57
-27 -123 -58z"/>
<path d="M2385 3674 c-99 -47 -183 -89 -188 -93 -4 -4 -6 -84 -5 -178 l3 -171
190 87 190 88 3 176 c1 98 -1 177 -5 177 -5 0 -89 -39 -188 -86z"/>
<path d="M1303 3357 l-103 -52 0 -98 c0 -54 4 -97 8 -95 5 2 54 23 110 48
l102 44 0 103 c0 57 -3 103 -7 102 -5 0 -54 -23 -110 -52z"/>
<path d="M5790 3390 c0 -5 4 -10 9 -10 6 0 13 5 16 10 3 6 -1 10 -9 10 -9 0
-16 -4 -16 -10z"/>
<path d="M4283 3233 l-283 -137 0 -299 c0 -164 4 -297 8 -295 23 10 514 264
550 285 l42 25 0 239 c0 163 -4 252 -12 279 -7 22 -15 40 -18 40 -3 -1 -132
-62 -287 -137z"/>
<path d="M1803 3228 l-133 -81 0 -144 c0 -80 4 -143 8 -141 5 2 68 37 140 78
l132 75 0 148 c0 81 -3 147 -7 146 -5 0 -68 -37 -140 -81z"/>
<path d="M3598 3061 l-268 -136 0 -273 c0 -151 3 -272 8 -270 4 2 130 66 280
142 l272 140 0 268 c0 208 -3 268 -12 267 -7 -1 -133 -62 -280 -138z"/>
<path d="M3055 3097 c-82 -40 -187 -90 -232 -112 l-83 -39 0 -237 0 -238 73
33 c39 19 108 50 152 71 44 21 117 55 163 76 l82 38 0 241 c0 132 -1 240 -2
240 -2 0 -70 -33 -153 -73z"/>
<path d="M2378 3016 l-188 -91 0 -172 c0 -95 2 -173 5 -173 2 0 67 29 142 64
76 35 162 74 191 86 l52 22 0 174 c0 95 -3 175 -7 177 -5 2 -92 -37 -195 -87z"/>
<path d="M1308 2684 l-108 -54 0 -101 c0 -55 4 -99 8 -97 5 2 54 23 110 48
l102 44 0 108 c0 60 -1 108 -2 107 -2 0 -51 -25 -110 -55z"/>
<path d="M4440 2632 c-74 -37 -204 -100 -287 -141 l-153 -73 0 -300 0 -299
133 69 c72 38 207 109 300 156 l167 88 0 284 c0 221 -3 284 -12 283 -7 0 -74
-30 -148 -67z"/>
<path d="M1803 2549 l-133 -80 0 -140 c0 -108 3 -140 13 -137 6 2 69 34 139
72 92 51 128 76 130 90 6 39 -3 276 -10 276 -4 -1 -67 -37 -139 -81z"/>
<path d="M3598 2382 l-268 -137 0 -267 c0 -148 2 -268 5 -268 3 0 129 62 280
137 l275 138 0 267 c0 208 -3 268 -12 267 -7 0 -133 -62 -280 -137z"/>
<path d="M2975 2381 l-230 -109 -3 -241 -2 -240 217 106 c120 58 226 108 236
110 16 5 17 25 17 244 0 132 -1 239 -2 239 -2 0 -106 -50 -233 -109z"/>
<path d="M2373 2333 l-183 -87 0 -172 0 -173 99 44 c55 24 143 64 195 89 l96
45 0 170 c0 130 -3 171 -12 171 -7 0 -95 -39 -195 -87z"/>
</g>
</svg>
